PathFileType	4	(X/Y/Z)	OpenSim_Sub07_CSStiffKnee_Gyro.trc
DataRate	CameraRate	NumFrames	NumMarkers	Units	OrigDataRate	OrigDataStartFrame	OrigNumFrames
100	100	20	8	m	100	1	6734
Frame#	Time	torso_imu_offset_imu	pelvis_imu_offset_imu	tibia_r_imu_offset_imu	femur_r_imu_offset_imu	tibia_l_imu_offset_imu	femur_l_imu_offset_imu	toes_r_imu_offset_imu	toes_l_imu_offset_imu
				X1	Y1	Z1	X2	Y2	Z2	X3	Y3	Z3	X4	Y4	Z4	X5	Y5	Z5	X6	Y6	Z6	X7	Y7	Z7	X8		Y8	Z8	

1	0	0.01467664	0.03462630	-0.00283174	-0.01921550	-0.03579775	-0.00735280	0.00341392	0.00582237	-0.01333648	0.00148783	0.02279219	0.02648225	-0.04416779	-0.00472339	0.03088926	-0.02130788	0.00169127	-0.02516591	-0.00321509	0.00084681	0.00201363	-0.00266236	0.00687247	0.00351347
2	0.01000000	0.01429924	0.02098285	-0.00118976	-0.02095646	-0.03712156	-0.00479480	0.00788063	0.00447051	-0.01555969	0.01336912	0.03071132	0.02594308	-0.05466867	-0.00510047	0.02839556	-0.02074572	0.00144044	-0.02533916	0.00067448	0.00068865	0.00112726	-0.00681502	0.00901830	0.00479725
3	0.02000000	0.02095474	0.01373110	0.00732261	-0.01837931	-0.03903162	-0.00761589	0.02338876	0.00417919	-0.01773894	0.01439681	0.04379733	0.02887437	-0.04829914	0.00217712	0.02225739	-0.02737151	-0.00040548	-0.02543724	0.00129422	0.00376236	0.00024490	-0.00950220	0.00658794	0.01144721
4	0.03000000	0.02061957	0.01729530	0.00782959	-0.01405543	-0.04338914	-0.00395677	0.01925425	0.00055075	-0.02021014	0.00206720	0.05265160	0.02646945	-0.05341725	-0.00501789	0.02660255	-0.01819286	-0.00430992	-0.02069599	-0.00292447	0.00315699	0.00209098	-0.00688680	0.00693482	0.00978810
5	0.04000000	0.00757254	0.01061925	0.00950577	-0.01170940	-0.03381688	-0.00554989	0.01756285	0.00113271	-0.02164893	-0.01703507	0.05437075	0.02879251	-0.05117223	-0.00819780	0.02440703	-0.00674700	0.00097272	-0.02176130	0.00066091	-0.00149571	-0.00181574	-0.01364928	0.00706004	0.01208332
6	0.05000000	0.00166636	0.00969090	0.00340364	-0.01130870	-0.02626844	-0.00827792	0.01624025	0.00505765	-0.02202780	-0.02884094	0.05234563	0.03870266	-0.02054259	-0.00325279	0.02204713	-0.00158259	-0.00057356	-0.01658485	-0.00087258	0.00003564	-0.00299817	-0.00317521	0.00665323	0.01239025
7	0.06000000	0.00635719	0.00610527	-0.00569634	-0.01099903	-0.02667538	-0.00708322	0.01240641	0.00241011	-0.02715466	-0.02772320	0.05592127	0.03943752	0.00428018	-0.00504547	0.02354314	0.00266916	-0.00139271	-0.01509569	-0.00046193	-0.00077858	-0.00310247	-0.01017287	0.00617744	0.01342501
8	0.07000000	0.00575253	-0.00057874	-0.00386952	-0.01229390	-0.02851672	-0.00524740	0.01088306	0.00188629	-0.02956303	-0.02060808	0.05146484	0.03547720	0.00266644	-0.00296891	0.01947451	0.01310220	-0.00718574	-0.01328134	-0.00027842	-0.00058104	-0.00362874	-0.00328432	0.00540020	0.01238853
9	0.08000000	0.00418297	-0.00011674	0.00025705	-0.01529727	-0.02399811	-0.00676449	0.00908026	0.00334309	-0.02889851	-0.01805084	0.04744095	0.02990259	-0.01223120	-0.00436474	0.01589263	0.02236088	-0.00964489	-0.01261770	0.00140590	-0.00279027	-0.00666930	-0.00491510	0.00643203	0.00980105
10	0.09000000	0.00053797	-0.00130426	-0.00284351	-0.01395276	-0.02746370	-0.01150033	0.00951110	0.00590158	-0.02861848	-0.02097664	0.03323363	0.03223269	-0.02224302	-0.01411550	0.01461905	0.01140504	-0.01119262	0.00474600	-0.00028169	0.00074506	-0.00387211	-0.00269314	0.00359819	0.00515932
11	0.10000000	-0.00579971	0.00150180	-0.00560425	-0.01176184	-0.03387197	-0.00959074	0.01297571	-0.00222832	-0.03064749	-0.02153927	0.02179865	0.02887087	-0.03998927	-0.02128989	0.01023811	-0.01556665	-0.01361573	0.00687405	0.00145641	0.00012011	-0.00402389	-0.00430021	0.00394601	0.00594601
12	0.11000000	-0.00741388	0.00159213	-0.01138772	-0.01073890	-0.02454907	-0.01671281	0.02064770	0.00492069	-0.02728483	-0.01436884	0.02426758	0.02703134	-0.05695188	-0.01530485	0.00684154	-0.04162828	-0.01733527	0.01272670	0.00413489	-0.00366192	-0.00404624	-0.00259035	0.00230080	0.00754980
13	0.12000000	-0.01295568	0.00274967	-0.01183542	-0.01108877	-0.02685841	-0.01270739	0.03179267	0.00682637	-0.02663903	-0.00341653	0.03726596	0.01187723	-0.07119440	-0.01442162	-0.00176420	-0.03993642	-0.02143903	0.01966971	0.00052416	-0.00125757	-0.00184834	-0.00441377	0.00479484	0.00658408
14	0.13000000	-0.01589193	0.00232313	-0.00969682	-0.01101288	-0.02533816	-0.01310916	0.04023534	0.00741412	-0.02684759	0.00061457	0.03809240	0.00296876	-0.07305969	-0.02112511	0.00096971	-0.03150200	-0.02400870	0.01838770	0.00153094	0.00179283	-0.00176857	0.00050265	0.00510090	0.00609523
15	0.14000000	-0.01586582	0.00247146	-0.00809573	-0.00576698	-0.02185473	-0.01473514	0.03069082	0.00844420	-0.02450160	-0.00845355	0.03369797	0.00405405	-0.05446724	-0.01846302	-0.00118985	-0.03912765	-0.02567954	0.01650792	0.00006497	0.00146526	-0.00128334	-0.00277372	0.00343590	0.00474054
16	0.15000000	-0.01329005	0.00436436	-0.00393981	-0.00695349	-0.02062460	-0.01307941	0.02120928	0.00956152	-0.01825703	-0.01941255	0.02847160	0.00475502	-0.04080694	-0.01110667	-0.00162765	-0.04199393	-0.03130092	0.01821571	0.00009976	0.00126534	-0.00284567	-0.00080593	0.00461913	0.00688757
17	0.16000000	-0.01365727	-0.00023910	-0.00038333	-0.00082115	-0.01939754	-0.01254722	0.00810711	0.01167631	-0.01235677	-0.02734012	0.02555513	0.00430082	-0.04339061	-0.01323223	-0.00166970	-0.02500183	-0.02940732	0.01688129	0.00123494	-0.00121182	-0.00321738	-0.00581724	0.00485619	0.00801631
18	0.17000000	-0.01036108	-0.00491648	-0.00112091	0.00150313	-0.02218542	-0.01646465	-0.00705700	0.00536013	-0.01229307	-0.03548364	0.02860339	-0.00200123	-0.03377675	0.00054648	-0.00243236	-0.01654182	-0.02824727	0.01107752	-0.00064856	0.00322017	-0.00137644	0.00039315	0.00382622	0.00201064
19	0.18000000	-0.00510677	-0.00872440	0.00365934	-0.00005220	-0.02721667	-0.01219103	-0.01469873	0.01054960	-0.01076520	-0.03221444	0.03443704	-0.00738200	-0.02572946	0.00201627	-0.00273668	-0.00923667	-0.02086354	0.01726204	-0.00043443	0.00414674	0.00075786	0.00000271	0.00516496	0.00177240
20	0.19000000	-0.00304383	-0.00941973	0.00462633	0.00647851	-0.02714948	-0.00962772	-0.02425238	0.01186280	-0.00055101	-0.01187154	0.03482459	-0.01118556	-0.02343637	-0.00605859	0.00322355	0.01187515	-0.01762154	0.01483008	-0.00056794	0.00183209	-0.00211125	0.00077260	0.00894600	-0.00037531
